<svg width="63" height="62" viewBox="0 0 63 62" fill="none" xmlns="http://www.w3.org/2000/svg">
<path fill-rule="evenodd" clip-rule="evenodd" d="M13.0078 3.00678C7.60835 2.89112 7.00781 6.37097 7.00781 10.668V52.8672C7.00781 57.1072 9.92116 58.008 13.9944 58.008H49.0179C53.8876 58.008 55.9961 57.3905 55.9961 52.9961V18.0312C55.9961 17.1345 54.9291 16.3058 54.3101 15.6602L43.9777 4.88513C43.3286 4.20819 41.9504 3.00678 41.0153 3.00678H13.0078ZM11.0403 6.99172H41.0153L51.9942 18.9975V54.0296H11.0403V6.99172ZM17.0304 24.0586H38.0165V18.9746H17.0304V24.0586ZM17.0304 34.0202H45.0167V28.9888H17.0304V34.0202ZM17.0304 44.0586H45.0167V39.0029H17.0304V44.0586Z" fill="#657077"/>
</svg>
