<svg width="64" height="64" viewBox="0 0 64 64" fill="none" xmlns="http://www.w3.org/2000/svg">
<rect x="0.5" y="0.5" width="63" height="63" rx="2.5" fill="white"/>
<path fill-rule="evenodd" clip-rule="evenodd" d="M29.9142 48.6745L15.8332 42.0865C14.6337 41.5114 14.6337 40.6225 15.8332 40.0997L20.7355 37.7991L29.862 42.0865C31.0615 42.6617 32.9911 42.6617 34.1385 42.0865L43.265 37.7991L48.1673 40.0997C49.3668 40.6748 49.3668 41.5637 48.1673 42.0865L34.0863 48.6745C32.9911 49.1974 31.0615 49.1974 29.9142 48.6745Z" fill="#FF6F3D"/>
<path fill-rule="evenodd" clip-rule="evenodd" d="M29.8686 40.5221L15.8305 33.9265C14.6346 33.3507 14.6346 32.4608 15.8305 31.9373L20.6138 29.6864L29.8686 34.0312C31.0644 34.607 32.9881 34.607 34.132 34.0312L43.3867 29.6864L48.1701 31.9373C49.3659 32.5131 49.3659 33.403 48.1701 33.9265L34.132 40.5221C32.9361 41.098 31.0124 41.098 29.8686 40.5221Z" fill="#95C038"/>
<path fill-rule="evenodd" clip-rule="evenodd" d="M29.8686 32.4543L15.8305 25.9536C14.6346 25.3861 14.6346 24.509 15.8305 23.9931L29.8686 17.4923C31.0644 16.9248 32.9881 16.9248 34.132 17.4923L48.1701 23.9931C49.3659 24.5606 49.3659 25.4377 48.1701 25.9536L34.132 32.4543C32.9361 32.9703 31.0124 32.9703 29.8686 32.4543Z" fill="#5DC0E8"/>
<rect x="0.5" y="0.5" width="63" height="63" rx="2.5" stroke="#E9E9E9"/>
</svg>
