<svg width="63" height="62" viewBox="0 0 63 62" fill="none" xmlns="http://www.w3.org/2000/svg">
<path fill-rule="evenodd" clip-rule="evenodd" d="M3.97051 12C3.68537 5.36659 5.4158 3 11.1345 3L49.469 3.09961C57.0005 3.09961 59.0092 5.37346 59.0092 12L59.0092 50C59.0092 56.2282 56.9468 59 49.469 59H12.9216C5.80218 59 3.97056 56.4362 3.97056 50L3.97051 12ZM11.1345 7C7.98156 7 7.98156 8.65876 7.98156 12V50C7.98156 53.8691 8.54627 55 12.9216 55H49.469C53.228 55 55.0313 53.9884 55.0313 50V12C55.0313 8.43665 53.7331 7 49.469 7H11.1345ZM34.2749 19C34.2749 17.3431 35.618 16 37.2749 16H43.2749C44.9318 16 46.2749 17.3431 46.2749 19V25C46.2749 26.6569 44.9318 28 43.2749 28H37.2749C35.618 28 34.2749 26.6569 34.2749 25V19ZM19.2749 16C17.618 16 16.2749 17.3431 16.2749 19V25C16.2749 26.6569 17.618 28 19.2749 28H25.2749C26.9318 28 28.2749 26.6569 28.2749 25V19C28.2749 17.3431 26.9318 16 25.2749 16H19.2749ZM16.2749 37C16.2749 35.3431 17.618 34 19.2749 34H25.2749C26.9318 34 28.2749 35.3431 28.2749 37V43C28.2749 44.6569 26.9318 46 25.2749 46H19.2749C17.618 46 16.2749 44.6569 16.2749 43V37ZM37.2749 34C35.618 34 34.2749 35.3431 34.2749 37V43C34.2749 44.6569 35.618 46 37.2749 46H43.2749C44.9318 46 46.2749 44.6569 46.2749 43V37C46.2749 35.3431 44.9318 34 43.2749 34H37.2749Z" fill="#657077"/>
</svg>
